PathFileType	4	(X/Y/Z)	D:\TRACE\spotREDO_2-26-24\spot_Both_Motion_1_7-platform.trc
DataRate	CameraRate	NumFrames	NumMarkers	Units	OrigDataRate	OrigDataStartFrame	OrigNumFrames
100.00	100.00	      25	5	mm	100.00	1	      7000
Frame#	Time	Left_Front			Right_Front			Left_Aft			Right_Aft			Post			
		X1	Y1	Z1	X2	Y2	Z2	X3	Y3	Z3	X4	Y4	Z4	X5	Y5	Z5	

1	0.000	-696.86682	-3.84013	-575.66199	718.00574	5.13843	-491.29059	-767.82343	4.21721	642.99701	801.96362	11.90468	647.05121	12.96434	623.26361	-982.53381	
2	0.010	-696.85339	-3.83365	-575.66602	717.99390	5.15999	-491.23584	-767.75128	4.29163	643.01263	801.92297	11.88158	647.04822	12.97863	623.24176	-982.57452	
3	0.020	-696.83771	-3.79954	-575.66583	717.99542	5.15871	-491.25885	-767.80768	4.25841	643.02026	801.89679	11.90199	647.04004	12.94744	623.25903	-982.59601	
4	0.030	-696.88306	-3.83627	-575.65948	718.01654	5.12292	-491.31458	-767.82642	4.22282	642.99988	801.91479	11.91393	647.03351	12.91585	623.22968	-982.63904	
5	0.040	-696.86401	-3.84742	-575.68390	718.03467	5.15715	-491.25858	-767.79199	4.20894	642.98694	801.94733	11.93737	647.02777	12.97822	623.23016	-982.56744	
6	0.050	-696.82208	-3.84975	-575.66162	718.01733	5.12502	-491.30643	-767.74945	4.22288	642.99658	801.96747	11.92323	647.03662	12.99001	623.21240	-982.60156	
7	0.060	-696.83136	-3.84611	-575.67084	717.98297	5.13683	-491.28986	-767.74890	4.19711	643.05133	801.91895	11.90644	647.03668	12.96384	623.21521	-982.54749	
8	0.070	-696.82263	-3.82421	-575.69659	718.02484	5.16048	-491.25803	-767.76746	4.21354	643.01831	801.96313	11.90745	647.04211	12.98826	623.19818	-982.55383	
9	0.080	-696.82434	-3.79647	-575.69043	718.00555	5.17000	-491.25775	-767.79425	4.22332	643.03217	801.89081	11.89648	647.05548	12.87869	623.26147	-982.55548	
10	0.090	-696.80090	-3.81903	-575.67920	718.01086	5.17131	-491.27692	-767.77533	4.23176	642.99420	801.90942	11.88548	647.05200	12.96426	623.23224	-982.49213	
11	0.100	-696.92596	-3.76327	-575.63812	717.99139	5.14332	-491.26736	-767.79773	4.20934	643.04858	801.87933	11.87250	647.05487	12.98182	623.23669	-982.51880	
12	0.110	-696.91998	-3.79567	-575.67139	718.01575	5.13425	-491.27441	-767.73865	4.19316	643.05566	801.91217	11.86219	647.04907	13.04070	623.22937	-982.49091	
13	0.120	-696.89191	-3.79101	-575.67340	718.02570	5.18997	-491.23288	-767.80719	4.23429	643.05981	801.88934	11.90703	647.03699	13.01493	623.23303	-982.47028	
14	0.130	-696.93738	-3.81826	-575.66888	717.99744	5.13346	-491.32162	-767.78680	4.24776	643.02563	801.92493	11.89856	647.04346	13.00467	623.20526	-982.50110	
15	0.140	-696.82062	-3.88262	-575.83514	718.04932	5.14253	-491.27194	-767.79474	4.21606	643.03088	801.89655	11.88267	647.04657	12.97436	623.21326	-982.51617	
16	0.150	-696.89648	-3.81802	-575.68201	718.00140	5.15352	-491.23746	-767.80774	4.25977	643.00391	801.89587	11.88855	647.03809	12.97050	623.19116	-982.50781	
17	0.160	-696.93262	-3.78608	-575.67120	717.95392	5.13244	-491.27951	-767.83179	4.28182	642.98615	801.90057	11.89890	647.04333	12.93925	623.21112	-982.56543	
18	0.170	-696.95709	-3.75086	-575.64606	718.01355	5.14664	-491.27267	-767.82434	4.27040	643.01147	801.90656	11.91625	647.04102	12.91530	623.23792	-982.62006	
19	0.180	-696.80927	-3.85669	-575.86554	718.00476	5.14884	-491.26590	-767.80029	4.30020	643.05951	801.93494	11.89967	647.04242	12.89346	623.23846	-982.60956	
20	0.190	-696.97107	-3.75168	-575.69250	717.98157	5.15576	-491.24951	-767.91876	4.31580	642.99805	801.91223	11.90895	647.04346	12.88750	623.27728	-982.58398	
21	0.200	-696.94702	-3.77079	-575.67889	718.04675	5.18232	-491.20224	-767.81226	4.24074	643.00085	801.94562	11.87785	647.04620	12.96840	623.23944	-982.57782	
22	0.210	-696.94049	-3.73466	-575.66772	717.99304	5.15333	-491.27982	-767.82166	4.27188	643.05072	801.98920	11.90199	647.03955	12.98227	623.22382	-982.55341	
23	0.220	-696.92303	-3.76115	-575.66962	717.98761	5.11553	-491.28592	-767.81708	4.28858	643.01801	801.95227	11.90663	647.03253	12.99552	623.22870	-982.54919	
24	0.230	-696.95404	-3.77323	-575.66534	717.98517	5.14915	-491.24673	-767.81567	4.32521	643.05145	801.89301	11.91936	647.03912	12.97547	623.20978	-982.52594	
25	0.240	-696.85797	-3.85208	-575.82568	718.03851	5.11823	-491.27258	-767.82751	4.29812	643.01013	801.90015	11.91673	647.03479	13.04139	623.22424	-982.48492	
